# xmcd
#
# Track frame offsets:
#	150
#	17000
#	36767
#	49877
#	71576
#
# Disc length: 1110 seconds
#
# Revision: 1
# Processed by: cddbd v1.5.2PL0 Copyright (c) Steve Scherf et al.
# Submitted via: audiograbber 1.83.01
#
DISCID=3c045405
DTITLE=Grill Bill and The Hot Dogs - Demo 2006
DYEAR=2006
DGENRE=
TTITLE0=First Class Driver
TTITLE1=Madelen
TTITLE2=The Big Adventure
TTITLE3=Knocking On The Wrong Door
TTITLE4=Ghost Train
EXTD=
EXTT0=
EXTT1=
EXTT2=
EXTT3=
EXTT4=
PLAYORDER=
